<svg xmlns="http://www.w3.org/2000/svg" viewBox="0 0 422.78 120"><g data-name="Layer 2"><path d="M178.01 1.6l90.39 116.8h9.37L187.38 1.6h-9.37zM52.92 58.49c-3.55-1.53-7.32-2.9-11-4.22-14.2-5.13-27.62-10-27.62-24.22 0-16.37 15.8-22.48 25.77-22.48 9.77 0 18.06 3.33 24.62 9.88l1.68 1.68 5.47-5.65-1.7-1.63A42.09 42.09 0 0 0 40.1 0C27 0 6.29 8.16 6.29 30.05c0 19.3 17.54 25.72 33 31.38 3.67 1.35 7.46 2.73 10.86 4.23 12.25 5.58 17.71 12.62 17.71 22.85 0 15.7-13.72 23.92-27.28 23.92-14.08 0-25.08-5.79-32.69-17.21l-1.35-2L0 97.91l1.38 1.91C11.52 113.78 23.57 120 40.44 120c20.56 0 35.48-13.24 35.48-31.49s-13.15-25.9-23-30m363.94 33.08l-1.48 1.86c-9.6 12.06-23.27 19-37.49 19-29.21 0-50.42-22.05-50.42-52.43 0-29.89 21.07-52.43 49-52.43a47.39 47.39 0 0 1 35.24 15.72l1.62 1.8 5.58-5.31-1.51-1.7A54.61 54.61 0 0 0 376.47 0c-32.39 0-56.81 25.79-56.81 60 0 34.77 24.48 60 58.22 60a55 55 0 0 0 43.53-21.75l1.37-1.8zM105.35 57.22h47.44v-7.57h-47.44V9.18h58.37V1.6H97.54v116.8h67.74v-7.57h-59.93V57.22zm187-55.62h7.81v116.8h-7.81z" data-name="Layer 1"/></g></svg>